# xmcd
#
# Track frame offsets:
#	182
#	29067
#	60062
#	93315
#	110477
#	121005
#	156270
#	172682
#	191085
#	208875
#	258775
#	283572
#
# Disc length: 4101 seconds
#
# Revision: 1
# Processed by: cddbd v1.5.1PL0 Copyright (c) Steve Scherf et al.
# Submitted via: audiograbber 1.82.01
#
DISCID=9b10030c
DTITLE=Monografie - 24 I Suoni Dell'India
DYEAR=1900
DGENRE=New Age
TTITLE0=Mynta - Tove
TTITLE1=Terra Incognita - Bop Du Bop
TTITLE2=Prem Joshua - Monsoon Journey
TTITLE3=Prahlad Brahmachari - Festival Song Of Assam
TTITLE4=Martin Lawrence - Kashmir
TTITLE5=Amit Chatterjee with Glen Velez and Eva Atsalis - Kuch Le Na
TTITLE6=Himalaya Roots - Resamm Phiriry
TTITLE7=Sambodhi Prem - Into The Heartland
TTITLE8=Amelia Cuni - Danza D'Amore
TTITLE9=Music Ensemble Of Benares - Anand Tandava
TTITLE10=Hariprasad Chaurasia and Amareesh - Now
TTITLE11=Mandolin U Srinivas - Sadamthim
EXTD=
EXTT0=
EXTT1=
EXTT2=
EXTT3=
EXTT4=
EXTT5=
EXTT6=
EXTT7=
EXTT8=
EXTT9=
EXTT10=
EXTT11=
PLAYORDER=
